<svg id="visual" viewBox="0 0 900 600" width="900" height="600" xmlns="http://www.w3.org/2000/svg" xmlns:xlink="http://www.w3.org/1999/xlink" version="1.1"><rect x="0" y="0" width="900" height="600" fill="#3F5EFB"></rect><defs><linearGradient id="grad1_0" x1="33.3%" y1="0%" x2="100%" y2="100%"><stop offset="20%" stop-color="#fc466b" stop-opacity="1"></stop><stop offset="80%" stop-color="#fc466b" stop-opacity="1"></stop></linearGradient></defs><defs><linearGradient id="grad1_1" x1="33.3%" y1="0%" x2="100%" y2="100%"><stop offset="20%" stop-color="#fc466b" stop-opacity="1"></stop><stop offset="80%" stop-color="#f52e8f" stop-opacity="1"></stop></linearGradient></defs><defs><linearGradient id="grad1_2" x1="33.3%" y1="0%" x2="100%" y2="100%"><stop offset="20%" stop-color="#dc30b6" stop-opacity="1"></stop><stop offset="80%" stop-color="#f52e8f" stop-opacity="1"></stop></linearGradient></defs><defs><linearGradient id="grad1_3" x1="33.3%" y1="0%" x2="100%" y2="100%"><stop offset="20%" stop-color="#dc30b6" stop-opacity="1"></stop><stop offset="80%" stop-color="#aa47dc" stop-opacity="1"></stop></linearGradient></defs><defs><linearGradient id="grad1_4" x1="33.3%" y1="0%" x2="100%" y2="100%"><stop offset="20%" stop-color="#3f5efb" stop-opacity="1"></stop><stop offset="80%" stop-color="#aa47dc" stop-opacity="1"></stop></linearGradient></defs><defs><linearGradient id="grad2_0" x1="0%" y1="0%" x2="66.7%" y2="100%"><stop offset="20%" stop-color="#fc466b" stop-opacity="1"></stop><stop offset="80%" stop-color="#fc466b" stop-opacity="1"></stop></linearGradient></defs><defs><linearGradient id="grad2_1" x1="0%" y1="0%" x2="66.7%" y2="100%"><stop offset="20%" stop-color="#f52e8f" stop-opacity="1"></stop><stop offset="80%" stop-color="#fc466b" stop-opacity="1"></stop></linearGradient></defs><defs><linearGradient id="grad2_2" x1="0%" y1="0%" x2="66.7%" y2="100%"><stop offset="20%" stop-color="#f52e8f" stop-opacity="1"></stop><stop offset="80%" stop-color="#dc30b6" stop-opacity="1"></stop></linearGradient></defs><defs><linearGradient id="grad2_3" x1="0%" y1="0%" x2="66.7%" y2="100%"><stop offset="20%" stop-color="#aa47dc" stop-opacity="1"></stop><stop offset="80%" stop-color="#dc30b6" stop-opacity="1"></stop></linearGradient></defs><defs><linearGradient id="grad2_4" x1="0%" y1="0%" x2="66.7%" y2="100%"><stop offset="20%" stop-color="#aa47dc" stop-opacity="1"></stop><stop offset="80%" stop-color="#3f5efb" stop-opacity="1"></stop></linearGradient></defs><g transform="translate(900, 0)"><path d="M0 513.8C-61.8 494 -123.5 474.2 -187.5 452.7C-251.5 431.2 -317.7 407.9 -363.3 363.3C-408.9 318.7 -433.8 252.8 -455.5 188.7C-477.1 124.6 -495.5 62.3 -513.8 0L0 0Z" fill="#8353ed"></path><path d="M0 411C-49.4 395.2 -98.8 379.4 -150 362.2C-201.2 344.9 -254.2 326.3 -290.6 290.6C-327.1 255 -347.1 202.2 -364.4 150.9C-381.7 99.6 -396.4 49.8 -411 0L0 0Z" fill="#c73aca"></path><path d="M0 308.3C-37.1 296.4 -74.1 284.5 -112.5 271.6C-150.9 258.7 -190.6 244.7 -218 218C-245.3 191.2 -260.3 151.7 -273.3 113.2C-286.3 74.7 -297.3 37.4 -308.3 0L0 0Z" fill="#eb2ba2"></path><path d="M0 205.5C-24.7 197.6 -49.4 189.7 -75 181.1C-100.6 172.5 -127.1 163.2 -145.3 145.3C-163.6 127.5 -173.5 101.1 -182.2 75.5C-190.8 49.8 -198.2 24.9 -205.5 0L0 0Z" fill="#fa387c"></path><path d="M0 102.8C-12.4 98.8 -24.7 94.8 -37.5 90.5C-50.3 86.2 -63.5 81.6 -72.7 72.7C-81.8 63.7 -86.8 50.6 -91.1 37.7C-95.4 24.9 -99.1 12.5 -102.8 0L0 0Z" fill="#fc466b"></path></g><g transform="translate(0, 600)"><path d="M0 -513.8C61.6 -493.1 123.2 -472.5 186.7 -450.9C250.3 -429.2 315.7 -406.7 363.3 -363.3C410.9 -319.9 440.7 -255.7 462.9 -191.7C485 -127.7 499.4 -63.9 513.8 0L0 0Z" fill="#8353ed"></path><path d="M0 -411C49.3 -394.5 98.6 -378 149.4 -360.7C200.2 -343.4 252.5 -325.3 290.6 -290.6C328.7 -255.9 352.6 -204.6 370.3 -153.4C388 -102.2 399.5 -51.1 411 0L0 0Z" fill="#c73aca"></path><path d="M0 -308.3C37 -295.9 73.9 -283.5 112 -270.5C150.2 -257.5 189.4 -244 218 -218C246.6 -192 264.4 -153.4 277.7 -115C291 -76.6 299.6 -38.3 308.3 0L0 0Z" fill="#eb2ba2"></path><path d="M0 -205.5C24.6 -197.3 49.3 -189 74.7 -180.3C100.1 -171.7 126.3 -162.7 145.3 -145.3C164.4 -128 176.3 -102.3 185.1 -76.7C194 -51.1 199.8 -25.5 205.5 0L0 0Z" fill="#fa387c"></path><path d="M0 -102.8C12.3 -98.6 24.6 -94.5 37.3 -90.2C50.1 -85.8 63.1 -81.3 72.7 -72.7C82.2 -64 88.1 -51.1 92.6 -38.3C97 -25.5 99.9 -12.8 102.8 0L0 0Z" fill="#fc466b"></path></g></svg>