<svg width="103" height="103" viewBox="0 0 103 103" fill="none" xmlns="http://www.w3.org/2000/svg">
<path d="M51.4998 102.198C79.4995 102.198 102.198 79.4996 102.198 51.4998C102.198 23.5001 79.4995 0.801758 51.4998 0.801758C23.5 0.801758 0.801758 23.5001 0.801758 51.4998C0.801758 79.4996 23.5 102.198 51.4998 102.198Z" fill="url(#paint0_radial_2153_24633)"/>
<path d="M51.5004 92.5897C74.5854 92.5897 93.3 73.8754 93.3 50.7903C93.3 27.7053 74.5854 8.99121 51.5004 8.99121C28.4153 8.99121 9.70117 27.7053 9.70117 50.7903C9.70117 73.8754 28.4153 92.5897 51.5004 92.5897Z" fill="#AD60F9"/>
<path d="M51.5004 8.99121C40.4145 8.99121 29.7827 13.395 21.9439 21.2339C14.105 29.0727 9.70117 39.7045 9.70117 50.7903H93.3C93.3 39.7045 88.896 29.0727 81.0569 21.2339C73.218 13.395 62.5862 8.99121 51.5004 8.99121Z" fill="#7D2CE3"/>
<path d="M51.5002 89.2897C72.7628 89.2897 89.999 72.0528 89.999 50.7902C89.999 29.5277 72.7628 12.291 51.5002 12.291C30.2377 12.291 13.001 29.5277 13.001 50.7902C13.001 72.0528 30.2377 89.2897 51.5002 89.2897Z" fill="url(#paint1_radial_2153_24633)"/>
<g filter="url(#filter0_d_2153_24633)">
<path fill-rule="evenodd" clip-rule="evenodd" d="M52.1172 75.2462C65.5856 75.2462 76.504 64.3278 76.504 50.8594C76.504 50.6993 76.5024 50.5395 76.4994 50.3801C76.2028 62.4441 66.3303 72.1326 54.1949 72.1326C41.8727 72.1326 31.8836 62.1435 31.8836 49.8213C31.8836 37.4991 41.8727 27.51 54.1949 27.51C59.0171 27.51 63.482 29.0398 67.1308 31.6406C62.9916 28.4026 57.7798 26.4726 52.1172 26.4726C38.6487 26.4726 27.7304 37.3909 27.7304 50.8594C27.7304 64.3278 38.6487 75.2462 52.1172 75.2462ZM52.1172 78.3594C67.305 78.3594 79.6172 66.0472 79.6172 50.8594C79.6172 35.6715 67.305 23.3594 52.1172 23.3594C36.9294 23.3594 24.6172 35.6715 24.6172 50.8594C24.6172 66.0472 36.9294 78.3594 52.1172 78.3594ZM55.7996 30.6893C47.0479 31.4514 40.1819 38.7972 40.1819 47.7467C40.1819 57.2033 47.848 64.8693 57.3046 64.8693C63.8987 64.8693 69.6222 61.1418 72.483 55.6789C70.0065 63.4171 62.755 69.0194 54.1949 69.0194C43.5921 69.0194 34.9968 60.4241 34.9968 49.8213C34.9968 39.2185 43.5921 30.6232 54.1949 30.6232C54.7353 30.6232 55.2705 30.6455 55.7996 30.6893ZM47.966 45.671C47.966 39.5011 52.6482 34.4247 58.6533 33.8014C58.2094 33.759 57.7595 33.7373 57.3046 33.7373C49.5674 33.7373 43.2951 40.0095 43.2951 47.7467C43.2951 55.4839 49.5674 61.7561 57.3046 61.7561C64.4463 61.7561 70.3399 56.4122 71.2047 49.5049C69.6078 54.2151 65.1498 57.6049 59.9 57.6049C53.309 57.6049 47.966 52.2619 47.966 45.671ZM59.9 54.4917C64.7715 54.4917 68.7207 50.5425 68.7207 45.671C68.7207 45.4807 68.7147 45.2918 68.7028 45.1045C68.4613 48.6103 65.5409 51.3793 61.9737 51.3793C58.2484 51.3793 55.2284 48.3594 55.2284 44.634C55.2284 40.9087 58.2484 37.8888 61.9737 37.8888C63.3215 37.8888 64.577 38.2841 65.6305 38.9651C64.089 37.6465 62.0875 36.8502 59.9 36.8502C55.0284 36.8502 51.0792 40.7994 51.0792 45.671C51.0792 50.5425 55.0284 54.4917 59.9 54.4917ZM65.6058 44.634C65.6058 46.64 63.9796 48.2661 61.9737 48.2661C59.9678 48.2661 58.3416 46.64 58.3416 44.634C58.3416 42.6281 59.9678 41.002 61.9737 41.002C63.9796 41.002 65.6058 42.6281 65.6058 44.634Z" fill="white"/>
<path fill-rule="evenodd" clip-rule="evenodd" d="M52.1172 75.2462C65.5856 75.2462 76.504 64.3278 76.504 50.8594C76.504 50.6993 76.5024 50.5395 76.4994 50.3801C76.2028 62.4441 66.3303 72.1326 54.1949 72.1326C41.8727 72.1326 31.8836 62.1435 31.8836 49.8213C31.8836 37.4991 41.8727 27.51 54.1949 27.51C59.0171 27.51 63.482 29.0398 67.1308 31.6406C62.9916 28.4026 57.7798 26.4726 52.1172 26.4726C38.6487 26.4726 27.7304 37.3909 27.7304 50.8594C27.7304 64.3278 38.6487 75.2462 52.1172 75.2462ZM52.1172 78.3594C67.305 78.3594 79.6172 66.0472 79.6172 50.8594C79.6172 35.6715 67.305 23.3594 52.1172 23.3594C36.9294 23.3594 24.6172 35.6715 24.6172 50.8594C24.6172 66.0472 36.9294 78.3594 52.1172 78.3594ZM55.7996 30.6893C47.0479 31.4514 40.1819 38.7972 40.1819 47.7467C40.1819 57.2033 47.848 64.8693 57.3046 64.8693C63.8987 64.8693 69.6222 61.1418 72.483 55.6789C70.0065 63.4171 62.755 69.0194 54.1949 69.0194C43.5921 69.0194 34.9968 60.4241 34.9968 49.8213C34.9968 39.2185 43.5921 30.6232 54.1949 30.6232C54.7353 30.6232 55.2705 30.6455 55.7996 30.6893ZM47.966 45.671C47.966 39.5011 52.6482 34.4247 58.6533 33.8014C58.2094 33.759 57.7595 33.7373 57.3046 33.7373C49.5674 33.7373 43.2951 40.0095 43.2951 47.7467C43.2951 55.4839 49.5674 61.7561 57.3046 61.7561C64.4463 61.7561 70.3399 56.4122 71.2047 49.5049C69.6078 54.2151 65.1498 57.6049 59.9 57.6049C53.309 57.6049 47.966 52.2619 47.966 45.671ZM59.9 54.4917C64.7715 54.4917 68.7207 50.5425 68.7207 45.671C68.7207 45.4807 68.7147 45.2918 68.7028 45.1045C68.4613 48.6103 65.5409 51.3793 61.9737 51.3793C58.2484 51.3793 55.2284 48.3594 55.2284 44.634C55.2284 40.9087 58.2484 37.8888 61.9737 37.8888C63.3215 37.8888 64.577 38.2841 65.6305 38.9651C64.089 37.6465 62.0875 36.8502 59.9 36.8502C55.0284 36.8502 51.0792 40.7994 51.0792 45.671C51.0792 50.5425 55.0284 54.4917 59.9 54.4917ZM65.6058 44.634C65.6058 46.64 63.9796 48.2661 61.9737 48.2661C59.9678 48.2661 58.3416 46.64 58.3416 44.634C58.3416 42.6281 59.9678 41.002 61.9737 41.002C63.9796 41.002 65.6058 42.6281 65.6058 44.634Z" fill="url(#paint2_linear_2153_24633)"/>
<path fill-rule="evenodd" clip-rule="evenodd" d="M52.1172 75.2462C65.5856 75.2462 76.504 64.3278 76.504 50.8594C76.504 50.6993 76.5024 50.5395 76.4994 50.3801C76.2028 62.4441 66.3303 72.1326 54.1949 72.1326C41.8727 72.1326 31.8836 62.1435 31.8836 49.8213C31.8836 37.4991 41.8727 27.51 54.1949 27.51C59.0171 27.51 63.482 29.0398 67.1308 31.6406C62.9916 28.4026 57.7798 26.4726 52.1172 26.4726C38.6487 26.4726 27.7304 37.3909 27.7304 50.8594C27.7304 64.3278 38.6487 75.2462 52.1172 75.2462ZM52.1172 78.3594C67.305 78.3594 79.6172 66.0472 79.6172 50.8594C79.6172 35.6715 67.305 23.3594 52.1172 23.3594C36.9294 23.3594 24.6172 35.6715 24.6172 50.8594C24.6172 66.0472 36.9294 78.3594 52.1172 78.3594ZM55.7996 30.6893C47.0479 31.4514 40.1819 38.7972 40.1819 47.7467C40.1819 57.2033 47.848 64.8693 57.3046 64.8693C63.8987 64.8693 69.6222 61.1418 72.483 55.6789C70.0065 63.4171 62.755 69.0194 54.1949 69.0194C43.5921 69.0194 34.9968 60.4241 34.9968 49.8213C34.9968 39.2185 43.5921 30.6232 54.1949 30.6232C54.7353 30.6232 55.2705 30.6455 55.7996 30.6893ZM47.966 45.671C47.966 39.5011 52.6482 34.4247 58.6533 33.8014C58.2094 33.759 57.7595 33.7373 57.3046 33.7373C49.5674 33.7373 43.2951 40.0095 43.2951 47.7467C43.2951 55.4839 49.5674 61.7561 57.3046 61.7561C64.4463 61.7561 70.3399 56.4122 71.2047 49.5049C69.6078 54.2151 65.1498 57.6049 59.9 57.6049C53.309 57.6049 47.966 52.2619 47.966 45.671ZM59.9 54.4917C64.7715 54.4917 68.7207 50.5425 68.7207 45.671C68.7207 45.4807 68.7147 45.2918 68.7028 45.1045C68.4613 48.6103 65.5409 51.3793 61.9737 51.3793C58.2484 51.3793 55.2284 48.3594 55.2284 44.634C55.2284 40.9087 58.2484 37.8888 61.9737 37.8888C63.3215 37.8888 64.577 38.2841 65.6305 38.9651C64.089 37.6465 62.0875 36.8502 59.9 36.8502C55.0284 36.8502 51.0792 40.7994 51.0792 45.671C51.0792 50.5425 55.0284 54.4917 59.9 54.4917ZM65.6058 44.634C65.6058 46.64 63.9796 48.2661 61.9737 48.2661C59.9678 48.2661 58.3416 46.64 58.3416 44.634C58.3416 42.6281 59.9678 41.002 61.9737 41.002C63.9796 41.002 65.6058 42.6281 65.6058 44.634Z" fill="white"/>
</g>
<defs>
<filter id="filter0_d_2153_24633" x="9.61719" y="12.3594" width="85" height="85" filterUnits="userSpaceOnUse" color-interpolation-filters="sRGB">
<feFlood flood-opacity="0" result="BackgroundImageFix"/>
<feColorMatrix in="SourceAlpha" type="matrix" values="0 0 0 0 0 0 0 0 0 0 0 0 0 0 0 0 0 0 127 0" result="hardAlpha"/>
<feOffset dy="4"/>
<feGaussianBlur stdDeviation="7.5"/>
<feComposite in2="hardAlpha" operator="out"/>
<feColorMatrix type="matrix" values="0 0 0 0 0.520833 0 0 0 0 0.375 0 0 0 0 0 0 0 0 0.54 0"/>
<feBlend mode="normal" in2="BackgroundImageFix" result="effect1_dropShadow_2153_24633"/>
<feBlend mode="normal" in="SourceGraphic" in2="effect1_dropShadow_2153_24633" result="shape"/>
</filter>
<radialGradient id="paint0_radial_2153_24633" cx="0" cy="0" r="1" gradientUnits="userSpaceOnUse" gradientTransform="translate(50.9999 -2.50001) rotate(90) scale(121.5 2312.52)">
<stop stop-color="#FF45F6"/>
<stop offset="0.914717" stop-color="#4A5CFF"/>
</radialGradient>
<radialGradient id="paint1_radial_2153_24633" cx="0" cy="0" r="1" gradientUnits="userSpaceOnUse" gradientTransform="translate(51 12) rotate(90) scale(93 1770.09)">
<stop stop-color="#FF45F6"/>
<stop offset="0.914717" stop-color="#4A5CFF"/>
</radialGradient>
<linearGradient id="paint2_linear_2153_24633" x1="52.1172" y1="23.3594" x2="52.1172" y2="78.3594" gradientUnits="userSpaceOnUse">
<stop offset="0.348958" stop-color="#F8E756"/>
<stop offset="1" stop-color="#F8E756" stop-opacity="0"/>
</linearGradient>
</defs>
</svg>
